<svg version="1.2" xmlns="http://www.w3.org/2000/svg" viewBox="0 0 256 273" width="256" height="273">
	<title>mycomputer</title>
	<style>
		.s0 { fill: #8d8d8d } 
		.s1 { fill: #808080 } 
		.s2 { fill: #c0c0c0 } 
		.s3 { fill: #008080 } 
		.s4 { fill: #ffffff } 
		.s5 { fill: #000000 } 
		.s6 { fill: #0000ff } 
		.s7 { fill: #008000 } 
		.s8 { fill: #00ff00 } 
		.s9 { fill: #00ffff } 
		.s10 { fill: #000080 } 
	</style>
	<path class="s0" d="m75 14c47.5 0 95 0 144 0 0 2.6 0 5.3 0 8 2.6 0 5.3 0 8 0 0 39.6 0 79.2 0 120 5.3 0 10.6 0 16 0 0 2.6 0 5.3 0 8 2.6 0 5.3 0 8 0 0 23.8 0 47.5 0 72-2.6 0-5.3 0-8 0 0 2.6 0 5.3 0 8-2.6 0-5.3 0-8 0 0 2.6 0 5.3 0 8-2.6 0-5.3 0-8 0 0 2.6 0 5.3 0 8-2.6 0-5.3 0-8 0 0 2.6 0 5.3 0 8-2.6 0-5.3 0-8 0 0 2.6 0 5.3 0 8-2.6 0-5.3 0-8 0 0 2.6 0 5.3 0 8-63.4 0-126.7 0-192 0 0-2.6 0-5.3 0-8-2.6 0-5.3 0-8 0 0-5.3 0-10.6 0-16 2.6 0 5.3 0 8 0 0-2.6 0-5.3 0-8 2.6 0 5.3 0 8 0 0-2.6 0-5.3 0-8 2.6 0 5.3 0 8 0 0-18.5 0-37 0-56 2.6 0 5.3 0 8 0 0-2.6 0-5.3 0-8 5.3 0 10.6 0 16 0 0-42.2 0-84.5 0-128 2.6 0 5.3 0 8 0 0-2.6 0-5.3 0-8 2.6 0 5.3 0 8 0 0-2.6 0-5.3 0-8 2.6 0 5.3 0 8 0 0-2.6 0-5.3 0-8z"/>
	<path class="s1" d="m67 22c47.5 0 95 0 144 0 0 2.6 0 5.3 0 8-2.6 0-5.3 0-8 0 0 39.6 0 79.2 0 120-47.5 0-95 0-144 0 0-39.6 0-79.2 0-120 2.6 0 5.3 0 8 0 0-2.6 0-5.3 0-8z"/>
	<path class="s2" d="m27 174c63.4 0 126.7 0 192 0 0 15.8 0 31.7 0 48-2.6 0-5.3 0-8 0 0 2.6 0 5.3 0 8-2.6 0-5.3 0-8 0 0 2.6 0 5.3 0 8-2.6 0-5.3 0-8 0 0-2.6 0-5.3 0-8-2.6 0-5.3 0-8 0 0 2.6 0 5.3 0 8-5.3 0-10.6 0-16 0 0-2.6 0-5.3 0-8-2.6 0-5.3 0-8 0 0 2.6 0 5.3 0 8-5.3 0-10.6 0-16 0 0-2.6 0-5.3 0-8-2.6 0-5.3 0-8 0 0 2.6 0 5.3 0 8-5.3 0-10.6 0-16 0 0-2.6 0-5.3 0-8-2.6 0-5.3 0-8 0 0 2.6 0 5.3 0 8-5.3 0-10.6 0-16 0 0-2.6 0-5.3 0-8-2.6 0-5.3 0-8 0 0 2.6 0 5.3 0 8-5.3 0-10.6 0-16 0 0-2.6 0-5.3 0-8-2.6 0-5.3 0-8 0 0 2.6 0 5.3 0 8-2.6 0-5.3 0-8 0 0 2.6 0 5.3 0 8 47.5 0 95 0 144 0 0 2.6 0 5.3 0 8-63.4 0-126.7 0-192 0 0-5.3 0-10.6 0-16 2.6 0 5.3 0 8 0 0-2.6 0-5.3 0-8 2.6 0 5.3 0 8 0 0-18.5 0-37 0-56z"/>
	<path class="s2" d="m67 22c47.5 0 95 0 144 0 0 2.6 0 5.3 0 8-2.6 0-5.3 0-8 0 0 39.6 0 79.2 0 120-47.5 0-95 0-144 0 0-39.6 0-79.2 0-120 2.6 0 5.3 0 8 0 0-2.6 0-5.3 0-8zm8 24c0 29 0 58.1 0 88 37 0 73.9 0 112 0 0-29 0-58.1 0-88-37 0-73.9 0-112 0z"/>
	<path class="s3" d="m83 62c31.7 0 63.4 0 96 0 0 21.1 0 42.2 0 64-5.3 0-10.6 0-16 0 0-13.2 0-26.4 0-40-5.3 0-10.6 0-16 0 0-5.3 0-10.6 0-16-15.8 0-31.7 0-48 0 0 2.6 0 5.3 0 8 13.2 0 26.4 0 40 0 0 2.6 0 5.3 0 8-7.9 0-15.8 0-24 0 0 2.6 0 5.3 0 8 13.2 0 26.4 0 40 0 0 7.9 0 15.8 0 24-13.2 0-26.4 0-40 0 0 2.6 0 5.3 0 8-10.6 0-21.1 0-32 0 0-21.1 0-42.2 0-64z"/>
	<path class="s4" d="m67 22c47.5 0 95 0 144 0 0 2.6 0 5.3 0 8-2.6 0-5.3 0-8 0 0 2.6 0 5.3 0 8-44.9 0-89.8 0-136 0 0 37 0 73.9 0 112-2.6 0-5.3 0-8 0 0-39.6 0-79.2 0-120 2.6 0 5.3 0 8 0 0-2.6 0-5.3 0-8z"/>
	<path class="s1" d="m67 230c2.6 0 5.3 0 8 0 0 2.6 0 5.3 0 8 5.3 0 10.6 0 16 0 0-2.6 0-5.3 0-8 2.6 0 5.3 0 8 0 0 2.6 0 5.3 0 8 5.3 0 10.6 0 16 0 0-2.6 0-5.3 0-8 2.6 0 5.3 0 8 0 0 2.6 0 5.3 0 8 5.3 0 10.6 0 16 0 0-2.6 0-5.3 0-8 2.6 0 5.3 0 8 0 0 2.6 0 5.3 0 8 5.3 0 10.6 0 16 0 0-2.6 0-5.3 0-8 2.6 0 5.3 0 8 0 0 2.6 0 5.3 0 8 5.3 0 10.6 0 16 0 0-2.6 0-5.3 0-8 2.6 0 5.3 0 8 0 0 2.6 0 5.3 0 8 2.6 0 5.3 0 8 0 0-2.6 0-5.3 0-8 10.6 0 21.1 0 32 0 0 2.6 0 5.3 0 8-2.6 0-5.3 0-8 0 0 2.6 0 5.3 0 8-2.6 0-5.3 0-8 0 0 2.6 0 5.3 0 8-2.6 0-5.3 0-8 0 0 2.6 0 5.3 0 8-2.6 0-5.3 0-8 0 0-5.3 0-10.6 0-16-47.5 0-95 0-144 0 0-2.6 0-5.3 0-8 2.6 0 5.3 0 8 0 0-2.6 0-5.3 0-8z"/>
	<path class="s1" d="m243 150c2.6 0 5.3 0 8 0 0 23.8 0 47.5 0 72-2.6 0-5.3 0-8 0 0 2.6 0 5.3 0 8-10.6 0-21.1 0-32 0 0-2.6 0-5.3 0-8 2.6 0 5.3 0 8 0 0-15.8 0-31.7 0-48 2.6 0 5.3 0 8 0 0-2.6 0-5.3 0-8 2.6 0 5.3 0 8 0 0-2.6 0-5.3 0-8 2.6 0 5.3 0 8 0 0-2.6 0-5.3 0-8z"/>
	<path class="s1" d="m227 142c5.3 0 10.6 0 16 0 0 5.3 0 10.6 0 16-2.6 0-5.3 0-8 0 0 2.6 0 5.3 0 8-2.6 0-5.3 0-8 0 0 2.6 0 5.3 0 8-63.4 0-126.7 0-192 0 0-2.6 0-5.3 0-8 58.1 0 116.2 0 176 0 0-2.6 0-5.3 0-8 2.6 0 5.3 0 8 0 0-2.6 0-5.3 0-8 2.6 0 5.3 0 8 0 0-2.6 0-5.3 0-8z"/>
	<path class="s4" d="m35 174c60.7 0 121.4 0 184 0 0 2.6 0 5.3 0 8-58.1 0-116.2 0-176 0 0 13.2 0 26.4 0 40-2.6 0-5.3 0-8 0 0-15.8 0-31.7 0-48z"/>
	<path class="s4" d="m11 238c5.3 0 10.6 0 16 0 0 2.6 0 5.3 0 8 58.1 0 116.2 0 176 0 0 2.6 0 5.3 0 8-63.4 0-126.7 0-192 0 0-5.3 0-10.6 0-16z"/>
	<path class="s4" d="m187 46c2.6 0 5.3 0 8 0 0 31.7 0 63.4 0 96-39.6 0-79.2 0-120 0 0-2.6 0-5.3 0-8 37 0 73.9 0 112 0 0-29 0-58.1 0-88z"/>
	<path class="s5" d="m11 262c63.4 0 126.7 0 192 0 0 2.6 0 5.3 0 8-63.4 0-126.7 0-192 0 0-2.6 0-5.3 0-8z"/>
	<path class="s5" d="m99 70c15.8 0 31.7 0 48 0 0 5.3 0 10.6 0 16 5.3 0 10.6 0 16 0 0 13.2 0 26.4 0 40-15.8 0-31.7 0-48 0 0-2.6 0-5.3 0-8 13.2 0 26.4 0 40 0 0-7.9 0-15.8 0-24-13.2 0-26.4 0-40 0 0-2.6 0-5.3 0-8 7.9 0 15.8 0 24 0 0-2.6 0-5.3 0-8-13.2 0-26.4 0-40 0 0-2.6 0-5.3 0-8z"/>
	<path class="s5" d="m75 54c34.3 0 68.6 0 104 0 0 2.6 0 5.3 0 8-31.7 0-63.4 0-96 0 0 21.1 0 42.2 0 64-2.6 0-5.3 0-8 0 0-23.8 0-47.5 0-72z"/>
	<path class="s5" d="m51 158c52.8 0 105.6 0 160 0 0 2.6 0 5.3 0 8-52.8 0-105.6 0-160 0 0-2.6 0-5.3 0-8z"/>
	<path class="s1" d="m27 174c2.6 0 5.3 0 8 0 0 15.8 0 31.7 0 48 7.9 0 15.8 0 24 0 0 2.6 0 5.3 0 8-2.6 0-5.3 0-8 0 0 2.6 0 5.3 0 8 2.6 0 5.3 0 8 0 0 2.6 0 5.3 0 8-10.6 0-21.1 0-32 0 0-2.6 0-5.3 0-8-2.6 0-5.3 0-8 0 0-2.6 0-5.3 0-8 2.6 0 5.3 0 8 0 0-18.5 0-37 0-56z"/>
	<path class="s2" d="m67 22c47.5 0 95 0 144 0 0 2.6 0 5.3 0 8-47.5 0-95 0-144 0 0-2.6 0-5.3 0-8z"/>
	<path class="s5" d="m219 22c2.6 0 5.3 0 8 0 0 42.2 0 84.5 0 128-2.6 0-5.3 0-8 0 0-42.2 0-84.5 0-128z"/>
	<path class="s4" d="m59 38c2.6 0 5.3 0 8 0 0 37 0 73.9 0 112-2.6 0-5.3 0-8 0 0-37 0-73.9 0-112z"/>
	<path class="s1" d="m187 230c2.6 0 5.3 0 8 0 0 2.6 0 5.3 0 8 2.6 0 5.3 0 8 0 0-2.6 0-5.3 0-8 10.6 0 21.1 0 32 0 0 2.6 0 5.3 0 8-2.6 0-5.3 0-8 0 0 2.6 0 5.3 0 8-2.6 0-5.3 0-8 0 0 2.6 0 5.3 0 8-2.6 0-5.3 0-8 0 0 2.6 0 5.3 0 8-2.6 0-5.3 0-8 0 0-5.3 0-10.6 0-16-5.3 0-10.6 0-16 0 0-5.3 0-10.6 0-16z"/>
	<path class="s4" d="m123 94c10.6 0 21.1 0 32 0 0 7.9 0 15.8 0 24-10.6 0-21.1 0-32 0 0-7.9 0-15.8 0-24z"/>
	<path class="s5" d="m123 198c26.4 0 52.8 0 80 0 0 2.6 0 5.3 0 8-26.4 0-52.8 0-80 0 0-2.6 0-5.3 0-8z"/>
	<path class="s1" d="m123 190c26.4 0 52.8 0 80 0 0 2.6 0 5.3 0 8-26.4 0-52.8 0-80 0 0-2.6 0-5.3 0-8z"/>
	<path class="s5" d="m155 86c2.6 0 5.3 0 8 0 0 13.2 0 26.4 0 40-15.8 0-31.7 0-48 0 0-2.6 0-5.3 0-8 13.2 0 26.4 0 40 0 0-10.6 0-21.1 0-32z"/>
	<path class="s5" d="m243 150c2.6 0 5.3 0 8 0 0 23.8 0 47.5 0 72-2.6 0-5.3 0-8 0 0-23.8 0-47.5 0-72z"/>
	<path class="s4" d="m107 78c10.6 0 21.1 0 32 0 0 2.6 0 5.3 0 8-7.9 0-15.8 0-24 0 0 5.3 0 10.6 0 16-2.6 0-5.3 0-8 0 0-7.9 0-15.8 0-24z"/>
	<path class="s1" d="m67 230c2.6 0 5.3 0 8 0 0 2.6 0 5.3 0 8 5.3 0 10.6 0 16 0 0 2.6 0 5.3 0 8-10.6 0-21.1 0-32 0 0-2.6 0-5.3 0-8 2.6 0 5.3 0 8 0 0-2.6 0-5.3 0-8z"/>
	<path class="s6" d="m115 86c13.2 0 26.4 0 40 0 0 2.6 0 5.3 0 8-13.2 0-26.4 0-40 0 0-2.6 0-5.3 0-8z"/>
	<path class="s7" d="m59 198c5.3 0 10.6 0 16 0 0 5.3 0 10.6 0 16-5.3 0-10.6 0-16 0 0-5.3 0-10.6 0-16z"/>
	<path class="s5" d="m219 230c5.3 0 10.6 0 16 0 0 2.6 0 5.3 0 8-2.6 0-5.3 0-8 0 0 2.6 0 5.3 0 8-2.6 0-5.3 0-8 0 0-5.3 0-10.6 0-16z"/>
	<path class="s4" d="m19 230c5.3 0 10.6 0 16 0 0 5.3 0 10.6 0 16-2.6 0-5.3 0-8 0 0-2.6 0-5.3 0-8-2.6 0-5.3 0-8 0 0-2.6 0-5.3 0-8z"/>
	<path class="s1" d="m115 94c2.6 0 5.3 0 8 0 0 7.9 0 15.8 0 24-2.6 0-5.3 0-8 0 0-7.9 0-15.8 0-24z"/>
	<path class="s1" d="m99 78c2.6 0 5.3 0 8 0 0 7.9 0 15.8 0 24-2.6 0-5.3 0-8 0 0-7.9 0-15.8 0-24z"/>
	<path class="s1" d="m3 246c2.6 0 5.3 0 8 0 0 5.3 0 10.6 0 16-2.6 0-5.3 0-8 0 0-5.3 0-10.6 0-16z"/>
	<path class="s1" d="m43 238c5.3 0 10.6 0 16 0 0 2.6 0 5.3 0 8-5.3 0-10.6 0-16 0 0-2.6 0-5.3 0-8z"/>
	<path class="s1" d="m51 230c5.3 0 10.6 0 16 0 0 2.6 0 5.3 0 8-5.3 0-10.6 0-16 0 0-2.6 0-5.3 0-8z"/>
	<path class="s8" d="m59 198c5.3 0 10.6 0 16 0 0 2.6 0 5.3 0 8-5.3 0-10.6 0-16 0 0-2.6 0-5.3 0-8z"/>
	<path class="s5" d="m99 102c5.3 0 10.6 0 16 0 0 2.6 0 5.3 0 8-5.3 0-10.6 0-16 0 0-2.6 0-5.3 0-8z"/>
	<path class="s9" d="m91 70c2.6 0 5.3 0 8 0 0 5.3 0 10.6 0 16-2.6 0-5.3 0-8 0 0-5.3 0-10.6 0-16z"/>
	<path class="s5" d="m203 254c2.6 0 5.3 0 8 0 0 2.6 0 5.3 0 8-2.6 0-5.3 0-8 0 0-2.6 0-5.3 0-8z"/>
	<path class="s1" d="m195 254c2.6 0 5.3 0 8 0 0 2.6 0 5.3 0 8-2.6 0-5.3 0-8 0 0-2.6 0-5.3 0-8z"/>
	<path class="s5" d="m211 246c2.6 0 5.3 0 8 0 0 2.6 0 5.3 0 8-2.6 0-5.3 0-8 0 0-2.6 0-5.3 0-8z"/>
	<path class="s2" d="m195 246c2.6 0 5.3 0 8 0 0 2.6 0 5.3 0 8-2.6 0-5.3 0-8 0 0-2.6 0-5.3 0-8z"/>
	<path class="s5" d="m179 238c2.6 0 5.3 0 8 0 0 2.6 0 5.3 0 8-2.6 0-5.3 0-8 0 0-2.6 0-5.3 0-8z"/>
	<path class="s5" d="m155 238c2.6 0 5.3 0 8 0 0 2.6 0 5.3 0 8-2.6 0-5.3 0-8 0 0-2.6 0-5.3 0-8z"/>
	<path class="s5" d="m131 238c2.6 0 5.3 0 8 0 0 2.6 0 5.3 0 8-2.6 0-5.3 0-8 0 0-2.6 0-5.3 0-8z"/>
	<path class="s5" d="m107 238c2.6 0 5.3 0 8 0 0 2.6 0 5.3 0 8-2.6 0-5.3 0-8 0 0-2.6 0-5.3 0-8z"/>
	<path class="s5" d="m83 238c2.6 0 5.3 0 8 0 0 2.6 0 5.3 0 8-2.6 0-5.3 0-8 0 0-2.6 0-5.3 0-8z"/>
	<path class="s5" d="m59 238c2.6 0 5.3 0 8 0 0 2.6 0 5.3 0 8-2.6 0-5.3 0-8 0 0-2.6 0-5.3 0-8z"/>
	<path class="s5" d="m35 238c2.6 0 5.3 0 8 0 0 2.6 0 5.3 0 8-2.6 0-5.3 0-8 0 0-2.6 0-5.3 0-8z"/>
	<path class="s1" d="m27 238c2.6 0 5.3 0 8 0 0 2.6 0 5.3 0 8-2.6 0-5.3 0-8 0 0-2.6 0-5.3 0-8z"/>
	<path class="s1" d="m11 238c2.6 0 5.3 0 8 0 0 2.6 0 5.3 0 8-2.6 0-5.3 0-8 0 0-2.6 0-5.3 0-8z"/>
	<path class="s4" d="m195 230c2.6 0 5.3 0 8 0 0 2.6 0 5.3 0 8-2.6 0-5.3 0-8 0 0-2.6 0-5.3 0-8z"/>
	<path class="s5" d="m187 230c2.6 0 5.3 0 8 0 0 2.6 0 5.3 0 8-2.6 0-5.3 0-8 0 0-2.6 0-5.3 0-8z"/>
	<path class="s1" d="m179 230c2.6 0 5.3 0 8 0 0 2.6 0 5.3 0 8-2.6 0-5.3 0-8 0 0-2.6 0-5.3 0-8z"/>
	<path class="s4" d="m171 230c2.6 0 5.3 0 8 0 0 2.6 0 5.3 0 8-2.6 0-5.3 0-8 0 0-2.6 0-5.3 0-8z"/>
	<path class="s5" d="m163 230c2.6 0 5.3 0 8 0 0 2.6 0 5.3 0 8-2.6 0-5.3 0-8 0 0-2.6 0-5.3 0-8z"/>
	<path class="s1" d="m155 230c2.6 0 5.3 0 8 0 0 2.6 0 5.3 0 8-2.6 0-5.3 0-8 0 0-2.6 0-5.3 0-8z"/>
	<path class="s4" d="m147 230c2.6 0 5.3 0 8 0 0 2.6 0 5.3 0 8-2.6 0-5.3 0-8 0 0-2.6 0-5.3 0-8z"/>
	<path class="s5" d="m139 230c2.6 0 5.3 0 8 0 0 2.6 0 5.3 0 8-2.6 0-5.3 0-8 0 0-2.6 0-5.3 0-8z"/>
	<path class="s1" d="m131 230c2.6 0 5.3 0 8 0 0 2.6 0 5.3 0 8-2.6 0-5.3 0-8 0 0-2.6 0-5.3 0-8z"/>
	<path class="s4" d="m123 230c2.6 0 5.3 0 8 0 0 2.6 0 5.3 0 8-2.6 0-5.3 0-8 0 0-2.6 0-5.3 0-8z"/>
	<path class="s5" d="m115 230c2.6 0 5.3 0 8 0 0 2.6 0 5.3 0 8-2.6 0-5.3 0-8 0 0-2.6 0-5.3 0-8z"/>
	<path class="s1" d="m107 230c2.6 0 5.3 0 8 0 0 2.6 0 5.3 0 8-2.6 0-5.3 0-8 0 0-2.6 0-5.3 0-8z"/>
	<path class="s4" d="m99 230c2.6 0 5.3 0 8 0 0 2.6 0 5.3 0 8-2.6 0-5.3 0-8 0 0-2.6 0-5.3 0-8z"/>
	<path class="s5" d="m91 230c2.6 0 5.3 0 8 0 0 2.6 0 5.3 0 8-2.6 0-5.3 0-8 0 0-2.6 0-5.3 0-8z"/>
	<path class="s1" d="m83 230c2.6 0 5.3 0 8 0 0 2.6 0 5.3 0 8-2.6 0-5.3 0-8 0 0-2.6 0-5.3 0-8z"/>
	<path class="s4" d="m75 230c2.6 0 5.3 0 8 0 0 2.6 0 5.3 0 8-2.6 0-5.3 0-8 0 0-2.6 0-5.3 0-8z"/>
	<path class="s5" d="m67 230c2.6 0 5.3 0 8 0 0 2.6 0 5.3 0 8-2.6 0-5.3 0-8 0 0-2.6 0-5.3 0-8z"/>
	<path class="s4" d="m51 230c2.6 0 5.3 0 8 0 0 2.6 0 5.3 0 8-2.6 0-5.3 0-8 0 0-2.6 0-5.3 0-8z"/>
	<path class="s5" d="m43 230c2.6 0 5.3 0 8 0 0 2.6 0 5.3 0 8-2.6 0-5.3 0-8 0 0-2.6 0-5.3 0-8z"/>
	<path class="s1" d="m19 230c2.6 0 5.3 0 8 0 0 2.6 0 5.3 0 8-2.6 0-5.3 0-8 0 0-2.6 0-5.3 0-8z"/>
	<path class="s5" d="m235 222c2.6 0 5.3 0 8 0 0 2.6 0 5.3 0 8-2.6 0-5.3 0-8 0 0-2.6 0-5.3 0-8z"/>
	<path class="s5" d="m211 222c2.6 0 5.3 0 8 0 0 2.6 0 5.3 0 8-2.6 0-5.3 0-8 0 0-2.6 0-5.3 0-8z"/>
	<path class="s4" d="m203 222c2.6 0 5.3 0 8 0 0 2.6 0 5.3 0 8-2.6 0-5.3 0-8 0 0-2.6 0-5.3 0-8z"/>
	<path class="s5" d="m195 222c2.6 0 5.3 0 8 0 0 2.6 0 5.3 0 8-2.6 0-5.3 0-8 0 0-2.6 0-5.3 0-8z"/>
	<path class="s1" d="m187 222c2.6 0 5.3 0 8 0 0 2.6 0 5.3 0 8-2.6 0-5.3 0-8 0 0-2.6 0-5.3 0-8z"/>
	<path class="s4" d="m179 222c2.6 0 5.3 0 8 0 0 2.6 0 5.3 0 8-2.6 0-5.3 0-8 0 0-2.6 0-5.3 0-8z"/>
	<path class="s5" d="m171 222c2.6 0 5.3 0 8 0 0 2.6 0 5.3 0 8-2.6 0-5.3 0-8 0 0-2.6 0-5.3 0-8z"/>
	<path class="s1" d="m163 222c2.6 0 5.3 0 8 0 0 2.6 0 5.3 0 8-2.6 0-5.3 0-8 0 0-2.6 0-5.3 0-8z"/>
	<path class="s4" d="m155 222c2.6 0 5.3 0 8 0 0 2.6 0 5.3 0 8-2.6 0-5.3 0-8 0 0-2.6 0-5.3 0-8z"/>
	<path class="s5" d="m147 222c2.6 0 5.3 0 8 0 0 2.6 0 5.3 0 8-2.6 0-5.3 0-8 0 0-2.6 0-5.3 0-8z"/>
	<path class="s1" d="m139 222c2.6 0 5.3 0 8 0 0 2.6 0 5.3 0 8-2.6 0-5.3 0-8 0 0-2.6 0-5.3 0-8z"/>
	<path class="s4" d="m131 222c2.6 0 5.3 0 8 0 0 2.6 0 5.3 0 8-2.6 0-5.3 0-8 0 0-2.6 0-5.3 0-8z"/>
	<path class="s5" d="m123 222c2.6 0 5.3 0 8 0 0 2.6 0 5.3 0 8-2.6 0-5.3 0-8 0 0-2.6 0-5.3 0-8z"/>
	<path class="s1" d="m115 222c2.6 0 5.3 0 8 0 0 2.6 0 5.3 0 8-2.6 0-5.3 0-8 0 0-2.6 0-5.3 0-8z"/>
	<path class="s4" d="m107 222c2.6 0 5.3 0 8 0 0 2.6 0 5.3 0 8-2.6 0-5.3 0-8 0 0-2.6 0-5.3 0-8z"/>
	<path class="s5" d="m99 222c2.6 0 5.3 0 8 0 0 2.6 0 5.3 0 8-2.6 0-5.3 0-8 0 0-2.6 0-5.3 0-8z"/>
	<path class="s1" d="m91 222c2.6 0 5.3 0 8 0 0 2.6 0 5.3 0 8-2.6 0-5.3 0-8 0 0-2.6 0-5.3 0-8z"/>
	<path class="s4" d="m83 222c2.6 0 5.3 0 8 0 0 2.6 0 5.3 0 8-2.6 0-5.3 0-8 0 0-2.6 0-5.3 0-8z"/>
	<path class="s5" d="m75 222c2.6 0 5.3 0 8 0 0 2.6 0 5.3 0 8-2.6 0-5.3 0-8 0 0-2.6 0-5.3 0-8z"/>
	<path class="s1" d="m67 222c2.6 0 5.3 0 8 0 0 2.6 0 5.3 0 8-2.6 0-5.3 0-8 0 0-2.6 0-5.3 0-8z"/>
	<path class="s4" d="m59 222c2.6 0 5.3 0 8 0 0 2.6 0 5.3 0 8-2.6 0-5.3 0-8 0 0-2.6 0-5.3 0-8z"/>
	<path class="s5" d="m51 222c2.6 0 5.3 0 8 0 0 2.6 0 5.3 0 8-2.6 0-5.3 0-8 0 0-2.6 0-5.3 0-8z"/>
	<path class="s1" d="m171 206c2.6 0 5.3 0 8 0 0 2.6 0 5.3 0 8-2.6 0-5.3 0-8 0 0-2.6 0-5.3 0-8z"/>
	<path class="s2" d="m219 166c2.6 0 5.3 0 8 0 0 2.6 0 5.3 0 8-2.6 0-5.3 0-8 0 0-2.6 0-5.3 0-8z"/>
	<path class="s2" d="m227 158c2.6 0 5.3 0 8 0 0 2.6 0 5.3 0 8-2.6 0-5.3 0-8 0 0-2.6 0-5.3 0-8z"/>
	<path class="s2" d="m235 150c2.6 0 5.3 0 8 0 0 2.6 0 5.3 0 8-2.6 0-5.3 0-8 0 0-2.6 0-5.3 0-8z"/>
	<path class="s5" d="m211 150c2.6 0 5.3 0 8 0 0 2.6 0 5.3 0 8-2.6 0-5.3 0-8 0 0-2.6 0-5.3 0-8z"/>
	<path class="s10" d="m115 86c2.6 0 5.3 0 8 0 0 2.6 0 5.3 0 8-2.6 0-5.3 0-8 0 0-2.6 0-5.3 0-8z"/>
	<path class="s1" d="m59 30c2.6 0 5.3 0 8 0 0 2.6 0 5.3 0 8-2.6 0-5.3 0-8 0 0-2.6 0-5.3 0-8z"/>
	<path class="s4" d="m203 22c2.6 0 5.3 0 8 0 0 2.6 0 5.3 0 8-2.6 0-5.3 0-8 0 0-2.6 0-5.3 0-8z"/>
	<path class="s1" d="m67 22c2.6 0 5.3 0 8 0 0 2.6 0 5.3 0 8-2.6 0-5.3 0-8 0 0-2.6 0-5.3 0-8z"/>
</svg>